Coordinates
version=1
nRows=13
nColumns=22
inDegrees=yes

Units are S.I. units (second, meters, Newtons, ...)
If the header above contains a line with 'inDegrees', this indicates whether rotational values are in degrees (yes) or radians (no).

endheader
time	pelvis_tilt	pelvis_list	pelvis_rotation	pelvis_tx	pelvis_ty	pelvis_tz	hip_flexion_r	hip_adduction_r	hip_rotation_r	knee_angle_r	ankle_angle_r	subtalar_angle_r	hip_flexion_l	hip_adduction_l	hip_rotation_l	knee_angle_l	ankle_angle_l	subtalar_angle_l	lumbar_extension	lumbar_bending	lumbar_rotation
      1.12000000	     -9.72926579	     -2.53279261	    -18.05039338	     -0.50822074	      0.96143514	     -0.13135959	     26.91644410	     11.46843928	     -6.06724344	    -30.75273935	     15.80970551	    -17.81207704	     29.54626057	     -8.57834801	      0.98929210	    -72.31742591	      8.38321201	      5.67337326	     -4.70498334	      5.14963281	      5.51540215
      1.13000000	     -9.71835217	     -2.50575951	    -18.47856693	     -0.50185842	      0.96201483	     -0.12757384	     26.23992247	     11.72156814	     -5.65066309	    -30.45640941	     16.10857505	    -17.91936897	     30.83156952	     -8.59699049	      1.38332876	    -72.01777409	      8.98881328	      5.24632031	     -4.73988076	      5.08113803	      5.89035373
      1.14000000	     -9.71255478	     -2.46300713	    -18.92015154	     -0.49548125	      0.96254264	     -0.12379468	     25.56938965	     11.95415418	     -5.21441065	    -30.16337278	     16.41764920	    -18.01093795	     32.06229359	     -8.57277419	      1.80265940	    -71.47353878	      9.55978588	      4.95516283	     -4.76368007	      5.00312110	      6.25530794
      1.15000000	     -9.69568739	     -2.41180587	    -19.35862724	     -0.48907197	      0.96302257	     -0.12008763	     24.89557338	     12.15665293	     -4.77944975	    -29.88941278	     16.76889502	    -18.08119407	     33.22111521	     -8.49504215	      2.26446656	    -70.70115036	     10.10715258	      4.82440060	     -4.80108980	      4.92940050	      6.59056738
      1.16000000	     -9.70637915	     -2.35106501	    -19.84360912	     -0.48262623	      0.96342720	     -0.11628599	     24.23080624	     12.36896518	     -4.30016204	    -29.59012422	     17.06135281	    -18.15566100	     34.32865262	     -8.43404907	      2.69881613	    -69.70574828	     10.60000180	      4.69049520	     -4.79782905	      4.85484055	      6.95782080
      1.17000000	     -9.71121337	     -2.28381943	    -20.33213506	     -0.47612437	      0.96378443	     -0.11251025	     23.55709020	     12.55918716	     -3.81317528	    -29.29401340	     17.36848189	    -18.22528853	     35.35643814	     -8.35073856	      3.14661761	    -68.49940564	     11.05305674	      4.61218071	     -4.79934587	      4.78389558	      7.29581021
      1.18000000	     -9.70972515	     -2.21486989	    -20.84180457	     -0.46956071	      0.96410125	     -0.10870576	     22.86575006	     12.73961800	     -3.30633257	    -28.99239406	     17.66923466	    -18.28996289	     36.29521385	     -8.27317115	      3.58199406	    -67.09503072	     11.46114488	      4.57252574	     -4.80610158	      4.71616489	      7.63339203
      1.19000000	     -9.70192726	     -2.15094812	    -21.36237516	     -0.46292346	      0.96436865	     -0.10489532	     22.15803836	     12.90951582	     -2.79885650	    -28.69051889	     17.98620419	    -18.34440765	     37.14455374	     -8.20548192	      4.01139689	    -65.50768947	     11.83151911	      4.56867294	     -4.82009864	      4.66013193	      7.96004308
      1.20000000	     -9.67819871	     -2.09236486	    -21.90145834	     -0.45621074	      0.96461151	     -0.10104706	     21.41843861	     13.07096763	     -2.26933927	    -28.38046601	     18.29444953	    -18.38663101	     37.89029340	     -8.15955846	      4.41634965	    -63.74925268	     12.14614122	      4.58447684	     -4.85241995	      4.60863236	      8.28296573
      1.21000000	     -9.65282966	     -2.04167037	    -22.44873119	     -0.44941160	      0.96479725	     -0.09719666	     20.66267277	     13.22190122	     -1.74748938	    -28.06258914	     18.61243239	    -18.41362407	     38.55110989	     -8.13359405	      4.81043144	    -61.83856834	     12.40869766	      4.61306150	     -4.88714834	      4.57617016	      8.58719725
      1.22000000	     -9.59093065	     -2.00523834	    -22.99977975	     -0.44253694	      0.96500172	     -0.09331663	     19.85136303	     13.36004568	     -1.20728079	    -27.73398595	     18.89116632	    -18.41221548	     39.08522923	     -8.12600148	      5.18563685	    -59.77960803	     12.59432971	      4.65207136	     -4.96890320	      4.54338023	      8.86455089
      1.23000000	     -9.59036253	     -1.97421149	    -23.56528807	     -0.43559935	      0.96500576	     -0.08940488	     19.09664996	     13.51099273	     -0.68735265	    -27.41302006	     19.23895237	    -18.41331195	     39.61437520	     -8.17487489	      5.53651664	    -57.61927067	     12.76137453	      4.70042554	     -4.97936091	      4.55202464	      9.13549967
      1.24000000	     -9.56132856	     -1.95386066	    -24.14137430	     -0.42859114	      0.96501302	     -0.08546951	     18.29731136	     13.64838416	     -0.14402626	    -27.08462085	     19.54271153	    -18.38406489	     40.02805081	     -8.24576025	      5.85493061	    -55.34204055	     12.85246271	      4.77073023	     -5.02883230	      4.56285451	      9.39521809
